Coordinates
version=1
nRows=60
nColumns=12
inDegrees=yes

Units are S.I. units (second, meters, Newtons, ...)
Angles are in degrees

endheader
time	SC_y	SC_z	SC_x	AC_y	AC_z	AC_x	GH_y	GH_z	GH_yy	EL_x	PS_y
       0.0              -47.25          31.13          53.31          35.81          0.812         -8.507         -83.24           82.1          66.85          17.22          96.85
   0.01977              -47.25          31.13          53.31           35.8         0.8091         -8.504          -83.2          82.09          66.84          17.23          96.85
   0.03954              -47.24          31.12          53.31           35.8          0.806         -8.501         -83.17          82.08          66.83          17.24          96.85
    0.0593              -47.24          31.12          53.31           35.8         0.8027         -8.497         -83.13          82.07          66.81          17.25          96.85
   0.07907              -47.24          31.11          53.31           35.8         0.7991         -8.493         -83.09          82.05           66.8          17.26          96.86
   0.09884              -47.23          31.11          53.31           35.8         0.7954         -8.489         -83.05          82.04          66.78          17.28          96.86
    0.1186              -47.22           31.1          53.31           35.8         0.7914         -8.484         -83.01          82.03          66.77          17.29          96.86
    0.1384              -47.22          31.09          53.31           35.8         0.7871          -8.48         -82.96          82.01          66.75           17.3          96.86
    0.1581              -47.21          31.08          53.31           35.8         0.7825         -8.475         -82.91           82.0          66.73          17.31          96.86
    0.1779               -47.2          31.08          53.31           35.8         0.7776         -8.469         -82.85          81.98          66.71          17.33          96.86
    0.1977               -47.2          31.07          53.31           35.8         0.7723         -8.463         -82.79          81.97          66.69          17.35          96.87
    0.2174              -47.19          31.06          53.31           35.8         0.7666         -8.457         -82.73          81.95          66.67          17.36          96.87
    0.2372              -47.18          31.05          53.31           35.8         0.7605          -8.45         -82.66          81.93          66.65          17.38          96.87
     0.257              -47.17          31.04          53.31           35.8         0.7539         -8.443         -82.59          81.91          66.62           17.4          96.87
    0.2768              -47.16          31.03          53.31           35.8         0.7467         -8.435         -82.51          81.88          66.59          17.42          96.88
    0.2965              -47.15          31.01          53.31           35.8          0.739         -8.426         -82.42          81.86          66.56          17.45          96.88
    0.3163              -47.14           31.0          53.31           35.8         0.7305         -8.417         -82.33          81.83          66.53          17.47          96.88
    0.3361              -47.12          30.99          53.31           35.8         0.7213         -8.407         -82.23           81.8          66.49           17.5          96.89
    0.3558              -47.11          30.97          53.31           35.8         0.7113         -8.396         -82.12          81.77          66.45          17.53          96.89
    0.3756              -47.09          30.95          53.31           35.8         0.7003         -8.383         -81.99          81.73          66.41          17.56           96.9
    0.3954              -47.08          30.93          53.31           35.8         0.6882          -8.37         -81.86          81.69          66.36           17.6           96.9
    0.4151              -47.06          30.91          53.31          35.79          0.675         -8.355         -81.71          81.65          66.31          17.64          96.91
    0.4349              -47.04          30.89          53.32          35.79         0.6603         -8.339         -81.55           81.6          66.25          17.69          96.91
    0.4547              -47.01          30.86          53.32          35.79          0.644         -8.321         -81.37          81.55          66.18          17.73          96.92
    0.4744              -46.99          30.83          53.32          35.79          0.626         -8.301         -81.17          81.49          66.11          17.79          96.92
    0.4942              -46.96           30.8          53.32          35.79         0.6058         -8.278         -80.94          81.42          66.03          17.85          96.93
     0.514              -46.93          30.76          53.32          35.79         0.5832         -8.253         -80.69          81.35          65.94          17.92          96.94
    0.5337              -46.89          30.72          53.32          35.79         0.5578         -8.225         -80.41          81.26          65.84           18.0          96.95
    0.5535              -46.85          30.67          53.32          35.78         0.5291         -8.193         -80.09          81.17          65.73          18.08          96.96
    0.5733               -46.8          30.62          53.32          35.78         0.4965         -8.157         -79.73          81.06           65.6          18.18          96.98
     0.593              -46.75          30.56          53.32          35.78         0.4593         -8.116         -79.31          80.94          65.45           18.3          96.99
    0.6128              -46.69          30.49          53.32          35.77         0.4165         -8.069         -78.84           80.8          65.28          18.43          97.01
    0.6326              -46.62          30.41          53.33          35.77         0.3672         -8.014         -78.29          80.64          65.09          18.58          97.03
    0.6523              -46.54          30.31          53.33          35.77           0.31          -7.95         -77.65          80.45          64.86          18.75          97.05
    0.6721              -46.44          30.21          53.33          35.76         0.2429         -7.876         -76.91          80.23          64.59          18.95          97.08
    0.6919              -46.33          30.08          53.33          35.75         0.1639         -7.788         -76.03          79.97          64.28          19.19          97.11
    0.7116              -46.19          29.92          53.34          35.75        0.06999         -7.684         -74.99          79.66          63.91          19.48          97.15
    0.7314              -46.03          29.74          53.34          35.74       -0.04258         -7.559         -73.73          79.29          63.46          19.82          97.19
    0.7512              -45.84          29.52          53.35          35.73        -0.1788         -7.408         -72.22          78.85          62.92          20.24          97.24
    0.7709               -45.6          29.25          53.35          35.71        -0.3451         -7.224         -70.37           78.3          62.26          20.74          97.31
    0.7907               -45.3          28.91          53.36           35.7        -0.5504         -6.996         -68.09          77.63          61.45          21.36          97.39
    0.8105              -44.94          28.49          53.37          35.68        -0.8065         -6.712         -65.24          76.79          60.43          22.14          97.49
    0.8303              -44.48          27.97          53.38          35.65         -1.129         -6.354         -61.65          75.73          59.15          23.12          97.62
      0.85              -43.89           27.3          53.39          35.62         -1.539         -5.899          -57.1          74.38          57.53          24.37          97.78
    0.8698              -43.14          26.45          53.41          35.58         -2.064         -5.317         -51.26          72.66          55.45          25.96          97.99
    0.8896              -42.18          25.35          53.44          35.53         -2.737          -4.57         -43.77          70.45          52.78          28.01          98.26
    0.9093              -40.95          23.95          53.47          35.46         -3.598         -3.616         -34.21          67.63          49.37          30.62           98.6
    0.9291               -39.4          22.18          53.51          35.37         -4.679         -2.416         -22.18          64.08          45.08          33.91          99.03
    0.9489              -37.51          20.03          53.56          35.27         -5.997         -0.954         -7.524          59.76          39.85          37.92          99.55
    0.9686              -35.33          17.54          53.61          35.15         -7.525         0.7409          9.464          54.74          33.79          42.56          100.2
    0.9884              -32.96          14.85          53.67          35.02          -9.18          2.576          27.86          49.32          27.23          47.59          100.8
     1.008               -30.6          12.15          53.73          34.89         -10.83          4.411          46.25          43.89          20.67          52.61          101.5
     1.028              -28.41           9.66          53.79          34.77         -12.36          6.106          63.24          38.88          14.62          57.26          102.1
     1.048              -26.52          7.512          53.83          34.66         -13.68          7.568           77.9          34.55          9.389          61.26          102.6
     1.067              -24.98          5.748          53.87          34.58         -14.76          8.768          89.93           31.0            5.1          64.55          103.0
     1.087              -23.75          4.346           53.9          34.51         -15.62          9.722          99.49          28.18          1.689          67.16          103.4
     1.107              -22.78          3.249          53.93          34.46          -16.3          10.47          107.0          25.97        -0.9808          69.21          103.6
     1.127              -22.03          2.393          53.95          34.41         -16.82          11.05          112.8          24.25         -3.062           70.8          103.8
     1.147              -21.45          1.725          53.96          34.38         -17.23          11.51          117.4           22.9         -4.687          72.05          104.0
     1.166              -20.99          1.199          53.97          34.36         -17.55          11.86          121.0          21.85         -5.966          73.03          104.1
